:SAMPLES-PER-SECOND 30
:FULLY-SPECIFIED
:DEGREES
131
root  -73.5889 41.413 -5.8398 174.503 -81.9091 -177.341
RightUpLeg  -5.04504 -7.45906 -5.8028
RightLeg  3.53755 -1.1854 2.8581
RightFoot  4.8957 -0.197713 1.61973
RightToes  0.00048216 0.542163 -0.142577
Spine  9.99881 0.989273 4.39185
Spine1  1.51022 2.21872 -4.53709
HEad  -4.32856 7.45943 -0.225922
LeftShoulder1  2.70848 -4.96293 -25.7631
LeftArm  -18.9631 12.6884 -7.63757
LeftForeArm  15.3223 -9.71707 -2.00756
LeftHand  -0.25398 0.0180481 5.50724
RightShoulder  3.2002 5.77615 28.4619
RightArm  -21.3415 -17.3374 10.7353
RightForeArm  -10.29 10.1129 3.95958
RightHand  -2.29805 8.06646 -20.0629
LeftUpLeg  -5.02115 6.88192 2.17674
LeftLeg  9.17175 13.8516 -1.48561
LeftFoot  -2.5737 -0.151759 2.18366
LeftToes  1.06249e-005 4.65856e-005 -8.18498e-006
132
root  -74.0343 41.4734 -5.96161 175.091 -82.3136 -178.183
RightUpLeg  -3.85126 -7.69687 -5.97281
RightLeg  3.34974 -1.17155 2.86871
RightFoot  4.61191 -0.0968416 0.915931
RightToes  0.00048216 0.542163 -0.142577
Spine  9.23757 0.832914 3.99176
Spine1  1.31932 1.83721 -3.73238
HEad  -3.32988 7.60915 -0.0402
LeftShoulder1  2.11768 -4.00658 -21.7706
LeftArm  -18.3424 13.3423 -4.80799
LeftForeArm  13.2471 -6.43071 -1.50417
LeftHand  -0.25398 0.0180481 5.50724
RightShoulder  2.4665 4.60172 24.2605
RightArm  -21.9451 -14.7709 6.98408
RightForeArm  -12.3932 8.10973 3.59371
RightHand  -2.43341 8.56954 -20.4703
LeftUpLeg  -3.68216 6.91238 2.22511
LeftLeg  8.45922 13.4426 -1.73928
LeftFoot  -2.86696 -0.136922 2.08006
LeftToes  1.06249e-005 4.65856e-005 -8.18498e-006
133
root  -74.4607 41.5195 -6.07694 174.554 -82.3783 -177.606
RightUpLeg  -3.07065 -7.70388 -5.935
RightLeg  3.26272 -1.19957 2.8869
RightFoot  3.99929 -0.092041 0.88791
RightToes  0.00048216 0.542163 -0.142577
Spine  8.15887 0.849462 4.27793
Spine1  1.58314 1.82424 -3.6614
HEad  -2.96572 7.51568 -0.0556527
LeftShoulder1  1.62748 -3.0816 -18.0265
LeftArm  -18.4009 13.7027 -2.62524
LeftForeArm  9.7188 -4.93431 -1.16535
LeftHand  -0.25398 0.0180481 5.50724
RightShoulder  1.81682 3.30662 20.2763
RightArm  -23.5956 -12.1228 4.00314
RightForeArm  -13.8463 6.75468 3.08044
RightHand  -2.32897 8.05672 -20.3248
LeftUpLeg  -2.8024 6.94432 2.50931
LeftLeg  8.10218 13.3044 -1.87345
LeftFoot  -3.42174 -0.0963146 1.68798
LeftToes  1.06249e-005 4.65856e-005 -8.18498e-006
134
root  -74.8521 41.5492 -6.17568 174.283 -82.0253 -177.044
RightUpLeg  -2.75943 -7.61568 -5.81584
RightLeg  3.19825 -0.906269 2.93051
RightFoot  3.53602 -0.12442 1.13725
RightToes  0.00048216 0.542163 -0.142577
Spine  7.0961 1.05801 5.1707
Spine1  1.809 2.185 -4.40923
HEad  -2.73432 7.18691 -0.104317
LeftShoulder1  1.1865 -1.92014 -14.8901
LeftArm  -19.4862 13.5053 -0.703231
LeftForeArm  6.85503 -5.29425 -0.817351
LeftHand  -0.25398 0.0180481 5.50724
RightShoulder  1.34819 2.21223 16.9926
RightArm  -25.0155 -9.84967 1.10141
RightForeArm  -15.0008 6.45163 2.79391
RightHand  -1.94679 6.10583 -19.9008
LeftUpLeg  -2.2681 6.89727 2.81293
LeftLeg  7.87283 13.598 -1.99849
LeftFoot  -3.92697 -0.0618743 1.32355
LeftToes  1.06249e-005 4.65856e-005 -8.18498e-006
135
root  -75.2039 41.5726 -6.2663 175.306 -81.7141 -177.804
RightUpLeg  -2.6383 -7.55168 -5.80132
RightLeg  3.39026 -0.544596 2.86463
RightFoot  3.17075 -0.127542 1.16795
RightToes  0.00048216 0.542163 -0.142577
Spine  6.48926 1.23162 6.27032
Spine1  1.39838 2.64073 -5.86763
HEad  -1.86453 6.79041 0.270513
LeftShoulder1  0.829736 -0.848794 -11.8498
LeftArm  -21.6371 13.1675 1.07032
LeftForeArm  7.87762 -7.04466 -0.231747
LeftHand  -0.25398 0.0180481 5.50724
RightShoulder  1.08976 1.56769 14.6242
RightArm  -23.9071 -7.75383 -1.61601
RightForeArm  -18.5731 5.56949 3.29075
RightHand  -2.21676 6.80466 -21.1486
LeftUpLeg  -1.69208 6.66333 2.91254
LeftLeg  7.40731 14.0695 -2.2472
LeftFoot  -4.13943 -0.0555043 1.27454
LeftToes  1.06249e-005 4.65856e-005 -8.18498e-006
